<?xml version="1.0" encoding="utf-8"?>
<!DOCTYPE svg PUBLIC "-//W3C//DTD SVG 1.1//EN" "http://www.w3.org/Graphics/SVG/1.1/DTD/svg11.dtd">
<svg version="1.1" id="Layer_1" xmlns="http://www.w3.org/2000/svg" xmlns:xlink="http://www.w3.org/1999/xlink" x="0px" y="0px"
	 viewBox="0 0 2602.0034 899.1861" enable-background="new 0 0 2602.0034 899.1861" xml:space="preserve">
<g>
	<g>
		<path d="M1625.9736,448.3438c-41.2781-48.5503-77.3099-101.0156-110.699-155.2236
			c-25.5135-40.5504-48.0878-83.5241-78.3448-120.8668c-14.5344-17.938-34.3486-36.9331-58.7246-38.328
			c-28.2793-1.6182-50.5951,22.1022-63.574,44.6604c-24.1952,42.0577-31.6903,91.5392-32.1854,139.4046
			c-5.1069,243.1417,199.0353,438.5813,417.2418,506.5728c227.4896,68.8447,481.9061,17.6862,656.3551-147.0599
			c149.4307-141.1191,219.667-347.5766,187.1426-550.6418c-5.4468-27.853-12.3638-54.9619-20.8926-82.0133
			c16.5847,200.1312-68.6829,416.0256-247.8794,520.5742c-201.8765,122.9389-460.4272,90.4878-620.1368-84.5359
			C1644.6168,470.2387,1635.1449,459.4158,1625.9736,448.3438C1596.3654,413.5192,1633.2682,457.1501,1625.9736,448.3438z"/>
	</g>
	<g>
		<path d="M976.0297,448.3438c41.2781-48.5503,77.31-101.0156,110.699-155.2236c25.5135-40.5504,48.0878-83.5241,78.3448-120.8668
			c14.5344-17.938,34.3486-36.9331,58.7246-38.328c28.2793-1.6182,50.5951,22.1022,63.574,44.6604
			c24.1952,42.0577,31.6903,91.5392,32.1854,139.4046c5.1069,243.1417-199.0353,438.5813-417.2418,506.5728
			c-227.4896,68.8447-481.9062,17.6862-656.3551-147.0599C96.5301,536.3841,26.2936,329.9267,58.8182,126.8614
			c5.4466-27.853,12.3638-54.9619,20.8924-82.0133C63.126,244.9793,148.3935,460.8737,327.5901,565.4223
			c201.8764,122.9389,460.4272,90.4878,620.1369-84.5359C957.3866,470.2387,966.8585,459.4158,976.0297,448.3438
			C1005.638,413.5192,968.7352,457.1501,976.0297,448.3438z"/>
	</g>
</g>
</svg>
